<?xml version="1.0" encoding="UTF-8" standalone="no"?>
<svg id="svg1117" xmlns:rdf="http://www.w3.org/1999/02/22-rdf-syntax-ns#" xmlns="http://www.w3.org/2000/svg" height="940.6" width="1609.7" version="1.1" xmlns:cc="http://creativecommons.org/ns#" xmlns:dc="http://purl.org/dc/elements/1.1/" viewBox="0 0 1287.7886 752.47817">
 <metadata id="metadata2168">
  <rdf:RDF>
   <cc:Work rdf:about="">
    <dc:format>image/svg+xml</dc:format>
    <dc:type rdf:resource="http://purl.org/dc/dcmitype/StillImage"/>
   </cc:Work>
  </rdf:RDF>
 </metadata>
 <text id="text6681" style="word-spacing:0px;letter-spacing:0px" xml:space="preserve" font-size="32px" y="626.24475" x="584.58862" font-family="Sans" line-height="125%" fill="#000000"><tspan id="tspan6683" font-size="96px" y="626.24475" x="584.58862" font-family="Liberation Sans">=</tspan></text>
 <text id="text6613" style="word-spacing:0px;letter-spacing:0px" xml:space="preserve" font-size="32px" y="302.52246" x="3.877146" font-family="Sans" line-height="125%" fill="#000000"><tspan id="tspan6615" font-size="36px" y="302.52246" x="3.877146" font-family="Liberation Sans">Calculate hash</tspan></text>
 <text id="text6046-8-5" style="word-spacing:0px;letter-spacing:0px" xml:space="preserve" font-size="38.4px" line-height="125%" y="386.84943" x="193.81868" font-family="Liberation Sans" fill="#000000"><tspan id="tspan6048-3-6" x="193.81868" y="386.84943">1011...1010</tspan></text>
 <path id="path2100-1-1" d="m171.92 363.3c-0.56-3.82 5.74-4.96 6.27-1.09 0.41 8.99 0.02 18 0.16 27 76.63 0 153.26 0.01 229.88-0.01 0.09-8.66-0.18-17.34 0.1-26-0.26-2.46 2.75-4.52 4.83-2.99 1.85 0.91 1.63 3.21 1.72 4.94-0.1 18.98 0.14 37.98-0.11 56.96 0.24 4.04-6.47 4.16-6.39 0.13-0.4-8.83-0.03-17.68-0.14-26.52-76.63 0-153.26-0.01-229.89 0-0.05 8.53 0.08 17.05-0.02 25.57 0.38 2.22-1.55 4.63-3.91 3.89-2.33-0.21-2.64-3.09-2.58-4.93 0.04-18.98-0.12-37.97 0.08-56.95z" fill="#4475be"/>
 <text id="text6046-8-0" style="word-spacing:0px;letter-spacing:0px" xml:space="preserve" font-size="38.4px" line-height="125%" y="593.67816" x="748.89746" font-family="Liberation Sans" fill="#000000"><tspan id="tspan6048-3-4" x="748.89746" y="593.67816">0010...01011</tspan></text>
 <path id="path2100-1-0" d="m739.37 571.02c-0.56-3.82 5.74-4.96 6.27-1.09 0.41 8.99 0.02 18 0.16 27 76.63 0 153.26 0.01 229.88-0.01 0.09-8.66-0.18-17.34 0.1-26-0.26-2.46 2.75-4.52 4.83-2.99 1.85 0.91 1.63 3.21 1.72 4.94-0.1 18.98 0.14 37.98-0.11 56.96 0.24 4.04-6.47 4.16-6.39 0.13-0.4-8.83-0.03-17.68-0.14-26.52-76.63 0-153.26-0.01-229.89 0-0.05 8.53 0.08 17.05-0.02 25.57 0.38 2.22-1.55 4.63-3.91 3.89-2.33-0.21-2.64-3.09-2.58-4.93 0.04-18.98-0.12-37.97 0.08-56.95z" fill="#4475be"/>
 <text id="text6046-8" style="word-spacing:0px;letter-spacing:0px" xml:space="preserve" font-size="38.4px" line-height="125%" y="593.67816" x="265.41318" font-family="Liberation Sans" fill="#000000"><tspan id="tspan6048-3" x="265.41318" y="593.67816">0010...01011</tspan></text>
 <path id="path2100-1" d="m255.89 571.02c-0.56-3.82 5.74-4.96 6.27-1.09 0.41 8.99 0.02 18 0.16 27 76.63 0 153.26 0.01 229.88-0.01 0.09-8.66-0.18-17.34 0.1-26-0.26-2.46 2.75-4.52 4.83-2.99 1.85 0.91 1.63 3.21 1.72 4.94-0.1 18.98 0.14 37.98-0.11 56.96 0.24 4.04-6.47 4.16-6.39 0.13-0.4-8.83-0.03-17.68-0.14-26.52-76.63 0-153.26-0.01-229.89 0-0.05 8.53 0.08 17.05-0.02 25.57 0.38 2.22-1.55 4.63-3.91 3.89-2.33-0.21-2.64-3.09-2.58-4.93 0.04-18.98-0.12-37.97 0.08-56.95z" fill="#4475be"/>
 <rect id="rect2180" opacity="0.99" height="89.888" width="279.01" stroke="#4475be" stroke-miterlimit="0" y="143.93" x="660.71" stroke-width="3.9905" fill="#eaeef6"/>
 <text id="text6046" style="word-spacing:0px;letter-spacing:0px" xml:space="preserve" font-size="38.4px" line-height="125%" y="183.03226" x="688.11371" font-family="Liberation Sans" fill="#000000"><tspan id="tspan6048" x="688.11371" y="183.03226">0010...01011</tspan></text>
 <path id="path2102" d="m498.31 209.59c1.98-0.95 3.19 1.29 4.54 2.33l-0.16 1.12c-1.23 13.56-1.19 27.22-2.38 40.78-1.37 12-2.43 24.03-3.96 36-1.93 11.46-3.83 22.93-5.79 34.39-2.02 9.4-4.3 18.75-6.42 28.14-2.22 10.58-5.8 20.8-8.76 31.18-4.21 15.15-10.24 29.69-15.48 44.5-4.17 9.99-8.59 19.89-13.01 29.78-2.35-0.02-4.7-0.03-7.04-0.04 4.41-10.14 8.95-20.23 13.3-30.4 3.26-8.5 6.3-17.07 9.48-25.6 4.28-10.93 7.06-22.35 10.53-33.55 3.67-11.47 5.86-23.33 8.71-35.02 2.83-11.17 4.29-22.61 6.3-33.94 2.88-15.53 3.91-31.31 5.77-46.98 0.85-13.06 1.47-26.15 1.94-39.23l0.06-1.09c0.71-0.85 1.28-1.95 2.37-2.37z" fill="#4475be"/>
 <path id="path2104" d="m280.47 254.46c1.36-1.02 2.68-2.37 4.47-2.55 1.39 0.22 2.27 1.44 3.28 2.3l-0.32 1.39c-0.69 2.23-2.87 3.51-4.45 5.07-10.94 9.17-20.62 20.66-24.77 34.55-3.19 10.75-1.42 22.51 3.59 32.42 1.9-1.56 3.75-3.22 5.83-4.56 4.97 11.23 9.02 22.88 13.63 34.27-10.53-6.52-21.09-13-31.56-19.62 2.35-1.92 4.68-3.85 7.02-5.78-6.48-12.06-8.72-26.71-4.37-39.86 4.58-14.79 15.28-26.65 26.61-36.76 0.26-0.22 0.78-0.65 1.04-0.87z" fill="#4475be"/>
 <rect id="rect6527" opacity="0.99" height="46.35" width="161.54" stroke="#000" y="165.68" x="418.45" stroke-width="0.8" fill="#ff9"/>
 <text id="text6481-0" style="word-spacing:0px;letter-spacing:0px" font-weight="bold" xml:space="preserve" font-size="96px" line-height="125%" y="221.64709" x="590.33386" font-family="Liberation Sans" fill="#000000"><tspan id="tspan6483-1" x="590.33386" y="221.64709">+</tspan></text>
 <text id="text6481" style="word-spacing:0px;letter-spacing:0px" font-weight="bold" xml:space="preserve" font-size="96px" line-height="125%" y="221.64709" x="353.01111" font-family="Liberation Sans" fill="#000000"><tspan id="tspan6483" x="353.01111" y="221.64709">+</tspan></text>
 <g id="g6473" transform="translate(-.98421 -15.72)" stroke="#000">
  <path id="path6449" d="m286.59 150.65v187.9h141.58v-140.8h-47.794v-46.882z" transform="scale(.8)" stroke-width="1px" fill="#ff9"/>
  <path id="path6453" d="m304.35 120.58 38.236 37.67" stroke-width=".80108px" fill="none"/>
 </g>
 <text id="text6477" style="word-spacing:0px;letter-spacing:0px" xml:space="preserve" font-size="36px" line-height="125%" y="209.27272" x="246.50317" font-family="Liberation Sans" fill="#000000"><tspan id="tspan6479" x="246.50317" y="209.27272">Data</tspan></text>
 <text id="text6409" style="word-spacing:0px;letter-spacing:0px" font-weight="bold" xml:space="preserve" font-size="52px" line-height="125%" y="37.679688" x="248.43474" font-family="Liberation Sans" fill="#810000"><tspan id="tspan6411" x="248.43474" y="37.679688">Checking the trusted timestamp</tspan></text>
 <path id="path1858" d="m764.51 331.09c3.4-1.63 8.07-3.56 11.14-0.25 1.86 1.47 0.15 3.67-0.27 5.44-3.16 1.44-7.47 1.5-9.9-1.27-0.4-1.3-0.73-2.6-0.97-3.92z"/>
 <path id="path2100" d="m678.59 160.37c-0.56-3.82 5.74-4.96 6.27-1.09 0.41 8.99 0.02 18 0.16 27 76.63 0 153.26 0.01 229.88-0.01 0.09-8.66-0.18-17.34 0.1-26-0.26-2.46 2.75-4.52 4.83-2.99 1.85 0.91 1.63 3.21 1.72 4.94-0.1 18.98 0.14 37.98-0.11 56.96 0.24 4.04-6.47 4.16-6.39 0.13-0.4-8.83-0.03-17.68-0.14-26.52-76.63 0-153.26-0.01-229.89 0-0.05 8.53 0.08 17.05-0.02 25.57 0.38 2.22-1.55 4.63-3.91 3.89-2.33-0.21-2.64-3.09-2.58-4.93 0.04-18.98-0.12-37.97 0.08-56.95z" fill="#4475be"/>
 <path id="path2106" d="m824.55 264.14c-0.49-1.87 0.36-4.33 2.5-4.58 2.22-0.48 3.84 1.69 3.9 3.71 12.46 76.04 14.12 153.37 12.69 230.26 2.83 0.14 5.67 0.25 8.51 0.3-4.14 11.64-8.47 23.22-12.68 34.84-3.64-11.85-7.14-23.75-10.78-35.6 2.82 0.13 5.65 0.21 8.48 0.25 1.4-76.53-0.29-153.49-12.62-229.18z" fill="#4475be"/>
 <path id="path2110" d="m278.93 415.1c1.02-2.57 5.11-2.28 5.9 0.36 0.06 4.76-1.79 9.29-2.55 13.95-1.55 9.37-1.96 18.91-1.16 28.37h-6.48c-1.19-14.34 0.28-28.88 4.29-42.68z" fill="#4475be"/>
 <path id="path2112" d="m286.49 505.06c2.27-0.03 4.54-0.05 6.81-0.08 2.65 5.27 5.25 10.56 7.92 15.81 2.29-1.46 4.59-2.91 6.88-4.37 2.96 12.01 6.12 23.96 9.05 35.98-9.63-7.76-19.25-15.53-28.87-23.31 2.47-1.59 4.95-3.16 7.42-4.73-3.02-6.46-6.6-12.65-9.21-19.3z" fill="#4475be"/>
 <path id="path2114" d="m405.01 521.26c3.27-5.4 6.42-10.89 9.76-16.25 2.49 0.01 4.98 0.02 7.48 0.03-3.99 6.55-7.75 13.25-11.86 19.73 2.33 1.73 4.72 3.4 7.15 5.01-9.78 7.57-19.55 15.13-29.37 22.63 3.31-11.93 6.6-23.86 9.92-35.79 2.31 1.54 4.62 3.08 6.92 4.64z" fill="#4475be"/>
 <g id="#08de0cff" transform="translate(-.98421 -15.72)">
  <path id="path2124" fill="#08de0c" d="m758.04 341.06c13-7.05 30.31-3.61 39.88 7.59 3.65 5.78 6.62 12.37 6.07 19.38-0.26 10.3-6.95 19.39-15.64 24.46 1.88 2.58 3.73 5.19 5.58 7.81-2.65 3.16-5.78 5.87-9.23 8.11 1.8 0.38 3.61 0.79 5.43 1.15 0.54 0.13 1.62 0.37 2.16 0.49-0.08 0.51-0.22 1.53-0.3 2.04-0.18 0.3-0.55 0.91-0.74 1.22-1.31 0.92-2.72 1.66-4.12 2.42 1.74 3.08 1.27 6.38-0.31 9.41 0.12 0.57 0.35 1.7 0.47 2.27 1 0.23 2 0.47 3.02 0.72 1.25 0.23 2.15 1.25 3.21 1.93l0.08 0.92c0.24 2.76 0.58 5.53 0.91 8.29-2.28 1.36-4.89 2.46-6.43 4.74-1.76 2.61-2.9 5.57-4.17 8.44 0.69 0.76 1.39 1.53 2.1 2.31-0.44 1.74-0.95 3.47-1.14 5.27 0.55 2.53 2.35 4.62 2.81 7.17-0.29 1.84-1.06 3.57-1.67 5.33-2.89 0.04-5.83 0.41-7.97 2.55 0.13 0.51 0.39 1.54 0.52 2.05 3.13 2.24 2.84 6.09 2.8 9.52-4.45 0.14-8.61 1.82-11.89 4.8 0.33-33.06 0.12-66.13 0.11-99.2-0.49 0.12-1.47 0.36-1.95 0.48 0.02 33.75-0.02 67.5 0.02 101.26-2.01-0.01-4.01-0.01-5.99 0.01h-0.29c0.04-27.98 0.02-55.96 0-83.93-0.01-1.33 0.07-2.65 0.25-3.96 0.15-1.13 0.33-2.26 0.52-3.38-2.29-0.97-4.59-1.93-6.88-2.88 1.89-1.3 3.8-2.59 5.75-3.8 0.73-0.47 1.47-0.93 2.22-1.38-5.88-2.24-11.23-5.76-15.32-10.55-3.54-4.99-5.95-10.99-5.89-17.17-0.23-10.77 6.53-21.05 16.02-25.89m11.01 0.89c-1.93 0.94-2.63 3.09-3.56 4.86 0.24 1.32 0.57 2.62 0.97 3.92 2.43 2.77 6.74 2.71 9.9 1.27 1.23-1.74 2.98-3.54 2.43-5.87-0.7-4.25-6.17-6.29-9.74-4.18z"/>
 </g>
 <g id="#755000ff" fill="#755000" transform="translate(-.98421 -15.72)">
  <path id="path2127" d="m769.05 341.95c3.57-2.11 9.04-0.07 9.74 4.18 0.55 2.33-1.2 4.13-2.43 5.87 0.42-1.77 2.13-3.97 0.27-5.44-3.07-3.31-7.74-1.38-11.14 0.25 0.93-1.77 1.63-3.92 3.56-4.86z"/>
  <path id="path2129" d="m797.92 348.65c5.2 4.77 8.83 11.34 9.5 18.43 1.44 11.47-5.49 22.53-15.19 28.25 1.94 2.56 3.81 5.19 5.67 7.82-2.41 2.33-4.8 4.78-7.77 6.41-1.82-0.36-3.63-0.77-5.43-1.15 3.45-2.24 6.58-4.95 9.23-8.11-1.85-2.62-3.7-5.23-5.58-7.81 8.69-5.07 15.38-14.16 15.64-24.46 0.55-7.01-2.42-13.6-6.07-19.38z"/>
  <path id="path2131" d="m747.91 384.12c4.09 4.79 9.44 8.31 15.32 10.55-0.75 0.45-1.49 0.91-2.22 1.38-5.24-2.87-9.88-6.88-13.1-11.93z"/>
  <path id="path2133" d="m767.63 392.73c0.48-0.12 1.46-0.36 1.95-0.48 0.01 33.07 0.22 66.14-0.11 99.2 3.28-2.98 7.44-4.66 11.89-4.8 0.04-3.43 0.33-7.28-2.8-9.52-0.13-0.51-0.39-1.54-0.52-2.05 2.14-2.14 5.08-2.51 7.97-2.55 0.61-1.76 1.38-3.49 1.67-5.33-0.46-2.55-2.26-4.64-2.81-7.17 0.19-1.8 0.7-3.53 1.14-5.27-0.71-0.78-1.41-1.55-2.1-2.31 1.27-2.87 2.41-5.83 4.17-8.44 1.54-2.28 4.15-3.38 6.43-4.74-0.33-2.76-0.67-5.53-0.91-8.29 1.03 0.74 2.06 1.5 3.09 2.27 0.22 3.08 0.64 6.14 1.23 9.18-2.2 1.21-4.62 2.23-6.31 4.16-1.35 2.83-2.19 5.88-3.71 8.65 0.7 1.29 1.4 2.6 2.11 3.9-0.72 1.23-1.43 2.46-2.12 3.7 1.21 2.3 2.7 4.57 3.12 7.18-0.06 2.04-0.71 3.99-1.19 5.95-2.04-0.02-4.08-0.05-6.11-0.09-0.66 1.5-1.18 3.06-1.5 4.68 0.75 0.44 2.25 1.32 3 1.75 0.02 2.51 0.02 5.01 0.01 7.52-5.73-0.78-10.55 3.07-13.53 7.58-2.16-0.14-4.56-1.12-6.42 0.48-1.21-1.3-2.42-2.6-3.61-3.89 1.98-0.02 3.98-0.02 5.99-0.01-0.04-33.76 0-67.51-0.02-101.26z"/>
  <path id="path2135" d="m754.77 399.65 0.49 0.2c2.29 0.95 4.59 1.91 6.88 2.88-0.19 1.12-0.37 2.25-0.52 3.38-1.81-0.83-3.61-1.63-5.43-2.38-0.48-1.37-0.97-2.73-1.42-4.08z"/>
  <path id="path2137" d="m791.99 412.09c1.1 0.1 2.19 0.27 3.29 0.5-0.01 0.89-0.03 2.68-0.04 3.57-1.61 0.86-3.22 1.72-4.82 2.6 0.71 1.45 1.45 2.9 2.19 4.36-0.78 1.67-1.55 3.33-2.3 5.01-1.02-0.25-2.02-0.49-3.02-0.72-0.12-0.57-0.35-1.7-0.47-2.27 1.58-3.03 2.05-6.33 0.31-9.41 1.4-0.76 2.81-1.5 4.12-2.42 0.19-0.31 0.56-0.92 0.74-1.22z"/>
 </g>
 <text id="text6529" style="word-spacing:0px;letter-spacing:0px" xml:space="preserve" font-size="32px" y="197.59299" x="419.64078" font-family="Sans" line-height="125%" fill="#000000"><tspan id="tspan6531" font-size="32px" y="197.59299" x="419.64078" font-family="Liberation Sans">Timestamp</tspan></text>
 <text id="text6638" style="word-spacing:0px;letter-spacing:0px" xml:space="preserve" font-size="36px" y="359.33817" x="865.16327" font-family="Liberation Sans" line-height="125%" fill="#000000"><tspan id="tspan6640" y="359.33817" x="865.16327">Apply public key of</tspan><tspan id="tspan6663" y="404.33817" x="865.16327">Timestamping Authority</tspan><tspan id="tspan6665" y="449.33817" x="865.16327">(TSA)</tspan></text>
 <text id="text6613-4" style="word-spacing:0px;letter-spacing:0px" xml:space="preserve" font-size="32px" y="489.32779" x="229.65659" font-family="Sans" line-height="125%" fill="#000000"><tspan id="tspan6615-5" font-size="36px" y="489.32779" x="229.65659" font-family="Liberation Sans">Calculate hash</tspan></text>
 <text id="text6667" style="word-spacing:0px;letter-spacing:0px" xml:space="preserve" font-size="29.389px" line-height="125%" y="678.71887" x="-0.44485179" font-family="Liberation Sans" fill="#810000"><tspan id="tspan6671" y="678.71887" x="-0.44485179">If the calculated hashcode equals the result of the decrypted signature, neither the document or the</tspan><tspan id="tspan6675" y="715.45502" x="-0.44485179">timestamp was changed and the timestamp was issued by the TTP. If not, either of the previous</tspan><tspan id="tspan6677" y="752.19116" x="-0.44485179">statements is not true.</tspan></text>
 <text id="text6685" style="word-spacing:0px;letter-spacing:0px" xml:space="preserve" font-size="80px" y="622.60193" x="591.31842" font-family="Sans" line-height="125%" fill="#ff0000"><tspan id="tspan6687" font-size="80px" y="622.60193" x="591.31842" font-family="Liberation Sans" fill="#ff0000">?</tspan></text>
</svg>
